<mxfile host="app.diagrams.net" modified="2024-02-12T17:00:57.458Z" agent="Mozilla/5.0 (X11; Ubuntu; Linux x86_64; rv:109.0) Gecko/20100101 Firefox/119.0" etag="EYP9sE4p17So-4flm3BH" version="23.1.2" type="github">
  <diagram name="Page-1" id="c4acf3e9-155e-7222-9cf6-157b1a14988f">
    <mxGraphModel dx="876" dy="570" grid="1" gridSize="10" guides="1" tooltips="1" connect="1" arrows="1" fold="1" page="1" pageScale="1" pageWidth="850" pageHeight="1100" background="none" math="0" shadow="0">
      <root>
        <mxCell id="0" />
        <mxCell id="1" parent="0" />
        <mxCell id="eV83WFU-OSgZYZa45-zI-28" value="" style="edgeStyle=orthogonalEdgeStyle;rounded=0;orthogonalLoop=1;jettySize=auto;html=1;" edge="1" parent="1" source="eV83WFU-OSgZYZa45-zI-23" target="eV83WFU-OSgZYZa45-zI-27">
          <mxGeometry relative="1" as="geometry" />
        </mxCell>
        <mxCell id="eV83WFU-OSgZYZa45-zI-29" value="has a" style="edgeLabel;html=1;align=center;verticalAlign=middle;resizable=0;points=[];" vertex="1" connectable="0" parent="eV83WFU-OSgZYZa45-zI-28">
          <mxGeometry x="0.0762" y="1" relative="1" as="geometry">
            <mxPoint x="-3" y="1" as="offset" />
          </mxGeometry>
        </mxCell>
        <mxCell id="eV83WFU-OSgZYZa45-zI-38" value="" style="edgeStyle=orthogonalEdgeStyle;rounded=0;orthogonalLoop=1;jettySize=auto;html=1;" edge="1" parent="1" source="eV83WFU-OSgZYZa45-zI-23" target="eV83WFU-OSgZYZa45-zI-36">
          <mxGeometry relative="1" as="geometry" />
        </mxCell>
        <mxCell id="eV83WFU-OSgZYZa45-zI-39" value="has many" style="edgeLabel;html=1;align=center;verticalAlign=middle;resizable=0;points=[];" vertex="1" connectable="0" parent="eV83WFU-OSgZYZa45-zI-38">
          <mxGeometry x="-0.2157" y="-2" relative="1" as="geometry">
            <mxPoint as="offset" />
          </mxGeometry>
        </mxCell>
        <mxCell id="eV83WFU-OSgZYZa45-zI-23" value="Corpus" style="rounded=0;whiteSpace=wrap;html=1;" vertex="1" parent="1">
          <mxGeometry x="290" y="240" width="120" height="60" as="geometry" />
        </mxCell>
        <mxCell id="eV83WFU-OSgZYZa45-zI-25" style="edgeStyle=orthogonalEdgeStyle;rounded=0;orthogonalLoop=1;jettySize=auto;html=1;entryX=0.5;entryY=0;entryDx=0;entryDy=0;" edge="1" parent="1" source="eV83WFU-OSgZYZa45-zI-24" target="eV83WFU-OSgZYZa45-zI-23">
          <mxGeometry relative="1" as="geometry" />
        </mxCell>
        <mxCell id="eV83WFU-OSgZYZa45-zI-26" value="has many" style="edgeLabel;html=1;align=center;verticalAlign=middle;resizable=0;points=[];" vertex="1" connectable="0" parent="eV83WFU-OSgZYZa45-zI-25">
          <mxGeometry x="0.1048" y="2" relative="1" as="geometry">
            <mxPoint x="-1" y="-8" as="offset" />
          </mxGeometry>
        </mxCell>
        <mxCell id="eV83WFU-OSgZYZa45-zI-24" value="Organisation" style="rounded=0;whiteSpace=wrap;html=1;" vertex="1" parent="1">
          <mxGeometry x="290" y="130" width="120" height="60" as="geometry" />
        </mxCell>
        <mxCell id="eV83WFU-OSgZYZa45-zI-31" value="specifies valid list" style="edgeStyle=orthogonalEdgeStyle;rounded=0;orthogonalLoop=1;jettySize=auto;html=1;" edge="1" parent="1" source="eV83WFU-OSgZYZa45-zI-27" target="eV83WFU-OSgZYZa45-zI-30">
          <mxGeometry relative="1" as="geometry" />
        </mxCell>
        <mxCell id="eV83WFU-OSgZYZa45-zI-27" value="Corpus Type" style="rounded=0;whiteSpace=wrap;html=1;" vertex="1" parent="1">
          <mxGeometry x="490" y="240" width="120" height="60" as="geometry" />
        </mxCell>
        <mxCell id="eV83WFU-OSgZYZa45-zI-34" value="" style="edgeStyle=orthogonalEdgeStyle;rounded=0;orthogonalLoop=1;jettySize=auto;html=1;" edge="1" parent="1" source="eV83WFU-OSgZYZa45-zI-30" target="eV83WFU-OSgZYZa45-zI-33">
          <mxGeometry relative="1" as="geometry" />
        </mxCell>
        <mxCell id="eV83WFU-OSgZYZa45-zI-35" value="specifies a" style="edgeLabel;html=1;align=center;verticalAlign=middle;resizable=0;points=[];" vertex="1" connectable="0" parent="eV83WFU-OSgZYZa45-zI-34">
          <mxGeometry x="-0.2024" y="2" relative="1" as="geometry">
            <mxPoint as="offset" />
          </mxGeometry>
        </mxCell>
        <mxCell id="eV83WFU-OSgZYZa45-zI-30" value="Family Category" style="rounded=0;whiteSpace=wrap;html=1;" vertex="1" parent="1">
          <mxGeometry x="491" y="365" width="120" height="60" as="geometry" />
        </mxCell>
        <mxCell id="eV83WFU-OSgZYZa45-zI-32" value="can have sub-categories" style="ellipse;shape=cloud;whiteSpace=wrap;html=1;" vertex="1" parent="1">
          <mxGeometry x="591" y="335" width="120" height="80" as="geometry" />
        </mxCell>
        <mxCell id="eV83WFU-OSgZYZa45-zI-33" value="Taxonomy / Schema" style="rounded=0;whiteSpace=wrap;html=1;" vertex="1" parent="1">
          <mxGeometry x="491" y="485" width="120" height="60" as="geometry" />
        </mxCell>
        <mxCell id="eV83WFU-OSgZYZa45-zI-40" value="" style="edgeStyle=orthogonalEdgeStyle;rounded=0;orthogonalLoop=1;jettySize=auto;html=1;" edge="1" parent="1" source="eV83WFU-OSgZYZa45-zI-36" target="eV83WFU-OSgZYZa45-zI-30">
          <mxGeometry relative="1" as="geometry" />
        </mxCell>
        <mxCell id="eV83WFU-OSgZYZa45-zI-41" value="has a" style="edgeLabel;html=1;align=center;verticalAlign=middle;resizable=0;points=[];" vertex="1" connectable="0" parent="eV83WFU-OSgZYZa45-zI-40">
          <mxGeometry x="-0.2345" y="-2" relative="1" as="geometry">
            <mxPoint x="9" y="-2" as="offset" />
          </mxGeometry>
        </mxCell>
        <mxCell id="eV83WFU-OSgZYZa45-zI-43" value="has" style="edgeStyle=orthogonalEdgeStyle;rounded=0;orthogonalLoop=1;jettySize=auto;html=1;" edge="1" parent="1" source="eV83WFU-OSgZYZa45-zI-36" target="eV83WFU-OSgZYZa45-zI-42">
          <mxGeometry relative="1" as="geometry">
            <mxPoint x="350.9999999999998" y="455" as="sourcePoint" />
          </mxGeometry>
        </mxCell>
        <mxCell id="eV83WFU-OSgZYZa45-zI-46" value="" style="edgeStyle=orthogonalEdgeStyle;rounded=0;orthogonalLoop=1;jettySize=auto;html=1;" edge="1" parent="1" source="eV83WFU-OSgZYZa45-zI-36" target="eV83WFU-OSgZYZa45-zI-45">
          <mxGeometry relative="1" as="geometry" />
        </mxCell>
        <mxCell id="eV83WFU-OSgZYZa45-zI-47" value="has many" style="edgeLabel;html=1;align=center;verticalAlign=middle;resizable=0;points=[];" vertex="1" connectable="0" parent="eV83WFU-OSgZYZa45-zI-46">
          <mxGeometry x="0.1155" y="1" relative="1" as="geometry">
            <mxPoint x="14" y="-1" as="offset" />
          </mxGeometry>
        </mxCell>
        <mxCell id="eV83WFU-OSgZYZa45-zI-36" value="&lt;div&gt;Family&lt;/div&gt;&lt;div&gt;&lt;br&gt;&lt;/div&gt;" style="rounded=0;whiteSpace=wrap;html=1;" vertex="1" parent="1">
          <mxGeometry x="291" y="350" width="120" height="90" as="geometry" />
        </mxCell>
        <mxCell id="eV83WFU-OSgZYZa45-zI-44" value="defined by" style="edgeStyle=orthogonalEdgeStyle;rounded=0;orthogonalLoop=1;jettySize=auto;html=1;" edge="1" parent="1" source="eV83WFU-OSgZYZa45-zI-42" target="eV83WFU-OSgZYZa45-zI-33">
          <mxGeometry relative="1" as="geometry" />
        </mxCell>
        <mxCell id="eV83WFU-OSgZYZa45-zI-42" value="Metadata" style="rounded=0;whiteSpace=wrap;html=1;" vertex="1" parent="1">
          <mxGeometry x="290" y="485" width="120" height="60" as="geometry" />
        </mxCell>
        <mxCell id="eV83WFU-OSgZYZa45-zI-45" value="&lt;div&gt;Document&lt;/div&gt;&lt;div&gt;&lt;font style=&quot;font-size: 9px;&quot;&gt;(type, role, language variant)&lt;/font&gt;&lt;br&gt;&lt;/div&gt;" style="whiteSpace=wrap;html=1;rounded=0;" vertex="1" parent="1">
          <mxGeometry x="91" y="365" width="120" height="60" as="geometry" />
        </mxCell>
        <mxCell id="eV83WFU-OSgZYZa45-zI-48" value="&lt;font style=&quot;font-size: 9px;&quot;&gt;author &amp;amp; author type for UNFCCC&lt;br&gt;&lt;/font&gt;" style="ellipse;shape=cloud;whiteSpace=wrap;html=1;" vertex="1" parent="1">
          <mxGeometry x="190" y="468" width="130" height="55" as="geometry" />
        </mxCell>
        <mxCell id="eV83WFU-OSgZYZa45-zI-49" value="&lt;font style=&quot;font-size: 9px;&quot;&gt;topic, sector, keyword, &lt;br&gt;etc for CCLW&lt;br&gt;&lt;/font&gt;" style="ellipse;shape=cloud;whiteSpace=wrap;html=1;" vertex="1" parent="1">
          <mxGeometry x="190" y="510" width="130" height="55" as="geometry" />
        </mxCell>
      </root>
    </mxGraphModel>
  </diagram>
</mxfile>
